<?xml version="1.0" encoding="utf-8"?>
<svg version="1.1" id="Icon" xmlns="http://www.w3.org/2000/svg"
	xmlns:xlink="http://www.w3.org/1999/xlink" x="0px" y="0px"
	viewBox="0 0 128 128" style="enable-background:new 0 0 128 128;" xml:space="preserve">
<style type="text/css">
	.st0{clip-path:url(#Mask);fill:#C4E5EB;}
	.st1{clip-path:url(#Mask);fill:#0A2E31;}
	.st2{clip-path:url(#Mask);fill:#010202;}
	.st3{fill:none;stroke:#FFFFFF;stroke-width:5;stroke-linecap:round;stroke-linejoin:round;stroke-miterlimit:10;}
</style>
<g>
	<defs>
		<path id="Rect" d="M87.9,128.3h-48c-22.1,0-40-17.9-40-40v-48c0-22.1,17.9-40,40-40h48c22.1,0,40,17.9,40,40v48
			C127.9,110.4,110,128.3,87.9,128.3z"/>
	</defs>
	<clipPath id="Mask">
		<use xlink:href="#Rect"  style="overflow:visible;"/>
	</clipPath>
	<path id="Category" style="clip-path:url(#Mask);fill:#C4E5EB;" d="M93.6,128
		H34.4C15.4,128,0,112.6,0,93.6V34.4C0,15.4,15.4,0,34.4,0h59.3c19,0,34.4,15.4,34.4,34.4v59.3C128,112.6,112.6,128,93.6,128z"/>
	<path id="Project" style="clip-path:url(#Mask);fill:#0A2E31;" d="M128,128
		V61.2c0-9.1-6.8-16.8-15.9-17.9l-85.3-10C12.5,31.7,0,42.8,0,57.2L0,128H128z"/>
	<path id="Task" style="clip-path:url(#Mask);fill:#010202;" d="M0,128V87.6
		c0-7.2,5.4-13.2,12.5-14.1l89.4-10.5c13.9-1.6,26.1,9.2,26.1,23.2V128H0z"/>
</g>
<path id="Tick" class="st3" d="M67.3,98.8l11.2,11.2c0.8,0.8,2,0.8,2.8,0l24.9-24.9" />
</svg>